<?xml version="1.0" encoding="UTF-8"?>
<svg width="20px" height="11px" viewBox="0 0 20 11" version="1.1" xmlns="http://www.w3.org/2000/svg" xmlns:xlink="http://www.w3.org/1999/xlink">
    <title>arrow</title>
    <g id="Screens" stroke="none" stroke-width="1" fill="none" fill-rule="evenodd">
        <g id="Assets" transform="translate(-272.000000, -136.000000)" fill="#FFFFFF" fill-rule="nonzero">
            <path d="M281.893035,147.038705 C281.613738,147.038705 281.366667,146.931283 281.162566,146.727181 L272.848113,138.219369 C272.665496,138.026009 272.558074,137.789681 272.558074,137.521126 C272.558074,136.962533 272.977019,136.532845 273.535613,136.532845 C273.81491,136.532845 274.06198,136.640267 274.233855,136.812142 L281.893035,144.632455 L289.541472,136.812142 C289.724089,136.640267 289.97116,136.532845 290.239714,136.532845 C290.798308,136.532845 291.217253,136.962533 291.217253,137.521126 C291.217253,137.789681 291.109831,138.026009 290.927214,138.208626 L282.612761,146.727181 C282.430144,146.931283 282.161589,147.038705 281.893035,147.038705 Z" id="arrow"></path>
        </g>
    </g>
</svg>