<?xml version="1.0" encoding="UTF-8"?>
<svg width="23px" height="23px" viewBox="0 0 23 23" version="1.1" xmlns="http://www.w3.org/2000/svg" xmlns:xlink="http://www.w3.org/1999/xlink">
    <title>covers</title>
    <g id="Screens" stroke="none" stroke-width="1" fill="none" fill-rule="evenodd">
        <g id="Assets" transform="translate(-201.000000, -27.000000)" fill="#FFFFFF">
            <path d="M204.389638,33.3030176 L216.235869,33.3030176 L216.235869,30.7644912 L204.389638,30.7644912 L204.389638,33.3030176 Z M211.159154,38.379733 L216.235869,38.379733 L216.235869,36.6872695 L211.159154,36.6872695 L211.159154,38.379733 Z M211.159154,41.7643224 L216.235869,41.7643224 L216.235869,40.0721964 L211.159154,40.0721964 L211.159154,41.7643224 Z M211.159154,45.1489118 L216.235869,45.1489118 L216.235869,43.4564484 L211.159154,43.4564484 L211.159154,45.1489118 Z M204.389975,38.379733 L209.467028,38.379733 L209.467028,36.6872695 L204.389975,36.6872695 L204.389975,38.379733 Z M204.389975,41.7643224 L209.467028,41.7643224 L209.467028,40.0721964 L204.389975,40.0721964 L204.389975,41.7643224 Z M204.389975,45.1489118 L209.467028,45.1489118 L209.467028,43.4564484 L204.389975,43.4564484 L204.389975,45.1489118 Z M222.159323,33.3030176 L220.466859,33.3030176 L220.466859,45.9953123 C220.466859,46.4630599 220.087531,46.8413753 219.620796,46.8413753 C219.153723,46.8413753 218.774733,46.4630599 218.774733,45.9953123 L218.774733,28.2259647 C218.774733,27.758892 218.395743,27.3799017 217.928333,27.3799017 L202.697512,27.3799017 C202.230439,27.3799017 201.851449,27.758892 201.851449,28.2259647 L201.851449,45.9953123 C201.851449,47.8642779 203.366735,49.3799017 205.236375,49.3799017 L217.928333,49.3799017 L218.774733,49.3799017 L219.620796,49.3799017 C221.490099,49.3799017 223.005386,47.8642779 223.005386,45.9953123 L223.005386,34.1490806 C223.005386,33.6820079 222.626395,33.3030176 222.159323,33.3030176 L222.159323,33.3030176 Z" id="covers"></path>
        </g>
    </g>
</svg>