<svg id="Layer_1" data-name="Layer 1" xmlns="http://www.w3.org/2000/svg" viewBox="0 0 148.22 43.92"><defs><style>.cls-1{fill:#fff;}.cls-2{fill:#a6a5a5;}.cls-3{fill:#010101;}.cls-4{fill:#fffffe;}</style></defs><title>download-ios</title><path class="cls-1" d="M147.24,38.73A4.21,4.21,0,0,1,143,42.94H5.19A4.21,4.21,0,0,1,1,38.73V5.19A4.21,4.21,0,0,1,5.19,1H143a4.21,4.21,0,0,1,4.22,4.21h0V38.73Z"/><path class="cls-2" d="M143,43.92H5.19A5.2,5.2,0,0,1,0,38.73V5.19A5.19,5.19,0,0,1,5.19,0H143a5.2,5.2,0,0,1,5.2,5.19V38.73A5.2,5.2,0,0,1,143,43.92Z"/><path class="cls-3" d="M147.24,38.73A4.21,4.21,0,0,1,143,42.94H5.19A4.21,4.21,0,0,1,1,38.73V5.19A4.21,4.21,0,0,1,5.19,1H143a4.21,4.21,0,0,1,4.22,4.21h0V38.73Z"/><path class="cls-1" d="M34.15,22.35a6.23,6.23,0,0,1,3-5.22,6.38,6.38,0,0,0-5-2.72c-2.12-.22-4.17,1.27-5.24,1.27s-2.76-1.25-4.55-1.21a6.71,6.71,0,0,0-5.63,3.43c-2.43,4.22-.62,10.41,1.72,13.82,1.16,1.66,2.53,3.53,4.31,3.46s2.4-1.11,4.51-1.11,2.7,1.11,4.52,1.07,3.05-1.68,4.18-3.36a13.91,13.91,0,0,0,1.91-3.89,6,6,0,0,1-3.68-5.54ZM30.71,12.17a6.11,6.11,0,0,0,1.41-4.39,6.25,6.25,0,0,0-4,2.09,5.81,5.81,0,0,0-1.44,4.23,5.13,5.13,0,0,0,4.07-1.93Z"/><path class="cls-1" d="M59.44,33.7H57l-1.34-4.2H51l-1.27,4.2H47.37L52,19.41h2.85L59.44,33.7Zm-4.18-6L54.05,24q-.19-.57-.72-2.7h0c-.14.61-.37,1.51-.68,2.7l-1.19,3.73Zm16,.68a5.87,5.87,0,0,1-1.43,4.16,4.22,4.22,0,0,1-3.18,1.35,3.15,3.15,0,0,1-2.94-1.46v5.41H61.42V26.78q0-1.65-.09-3.39h2L63.47,25h.05A4.07,4.07,0,0,1,70,24.62a5.72,5.72,0,0,1,1.22,3.8Zm-2.34.08A4.2,4.2,0,0,0,68.24,26a2.42,2.42,0,0,0-3.53-.45,2.56,2.56,0,0,0-.9,1.47,3.29,3.29,0,0,0-.11.7v1.72a2.76,2.76,0,0,0,.69,1.9,2.51,2.51,0,0,0,3.81-.23A4.38,4.38,0,0,0,68.92,28.5Zm14.19-.08a5.87,5.87,0,0,1-1.42,4.16,4.22,4.22,0,0,1-3.18,1.35,3.18,3.18,0,0,1-3-1.46v5.41H73.27V26.78c0-1.1,0-2.23-.08-3.39h2L75.33,25h0a4.08,4.08,0,0,1,6.53-.41,5.72,5.72,0,0,1,1.21,3.8Zm-2.33.08A4.27,4.27,0,0,0,80.1,26a2.42,2.42,0,0,0-3.53-.45,2.56,2.56,0,0,0-.9,1.47,3.09,3.09,0,0,0-.11.7v1.72a2.76,2.76,0,0,0,.69,1.9,2.31,2.31,0,0,0,1.79.77,2.33,2.33,0,0,0,2-1A4.38,4.38,0,0,0,80.78,28.5Zm15.59,1.19a3.79,3.79,0,0,1-1.27,3,5.65,5.65,0,0,1-3.89,1.25A6.77,6.77,0,0,1,87.5,33L88,31.11a6.35,6.35,0,0,0,3.31.89,3.12,3.12,0,0,0,2-.58,1.91,1.91,0,0,0,.72-1.56,2,2,0,0,0-.59-1.46,5.56,5.56,0,0,0-2-1.1c-2.5-.94-3.75-2.3-3.75-4.1a3.61,3.61,0,0,1,1.32-2.88,5.27,5.27,0,0,1,3.51-1.13,7,7,0,0,1,3.25.68l-.58,1.87a5.64,5.64,0,0,0-2.74-.66,2.79,2.79,0,0,0-1.9.6A1.69,1.69,0,0,0,90.05,23a1.74,1.74,0,0,0,.66,1.4,7.22,7.22,0,0,0,2.07,1.1,7.18,7.18,0,0,1,2.72,1.74,3.64,3.64,0,0,1,.87,2.48ZM104,25.11h-2.52v5c0,1.27.44,1.9,1.34,1.9a4,4,0,0,0,1-.1l.07,1.74a5.43,5.43,0,0,1-1.78.25,2.76,2.76,0,0,1-2.13-.83,4.11,4.11,0,0,1-.76-2.78V25.11h-1.5V23.39h1.5V21.5l2.25-.68v2.57H104v1.72Zm11.37,3.35a5.64,5.64,0,0,1-1.35,3.9,4.85,4.85,0,0,1-3.78,1.57,4.63,4.63,0,0,1-3.62-1.5,5.47,5.47,0,0,1-1.34-3.8,5.64,5.64,0,0,1,1.38-3.92,4.83,4.83,0,0,1,3.75-1.53A4.74,4.74,0,0,1,114,24.69a5.39,5.39,0,0,1,1.31,3.77Zm-2.37.05a4.62,4.62,0,0,0-.61-2.43,2.26,2.26,0,0,0-2.06-1.22,2.29,2.29,0,0,0-2.1,1.22,4.7,4.7,0,0,0-.62,2.48,4.62,4.62,0,0,0,.62,2.43,2.35,2.35,0,0,0,4.14,0,4.64,4.64,0,0,0,.63-2.46Zm9.82-3.1a3.51,3.51,0,0,0-.72-.07,2.17,2.17,0,0,0-1.87.92,3.41,3.41,0,0,0-.57,2V33.7h-2.29V26.64c0-1.08,0-2.16-.07-3.25h2l.08,2h.07a3.53,3.53,0,0,1,1.14-1.64,2.82,2.82,0,0,1,1.66-.55,4.78,4.78,0,0,1,.57,0v2.19ZM133,28.06a6,6,0,0,1-.09,1h-6.87a3,3,0,0,0,1,2.33,3.41,3.41,0,0,0,2.25.72,7.76,7.76,0,0,0,2.78-.48l.35,1.58a8.47,8.47,0,0,1-3.45.64,5,5,0,0,1-3.77-1.41,5.21,5.21,0,0,1-1.37-3.78,5.89,5.89,0,0,1,1.28-3.88,4.4,4.4,0,0,1,3.6-1.66,3.86,3.86,0,0,1,3.38,1.66,5.58,5.58,0,0,1,.91,3.24Zm-2.19-.59a3.11,3.11,0,0,0-.44-1.77,2,2,0,0,0-1.83-.95,2.16,2.16,0,0,0-1.82.93,3.45,3.45,0,0,0-.68,1.78Z"/><path class="cls-4" d="M51.37,8.26c2.18,0,3.25,1.3,3.25,3.65s-1.08,3.68-3.25,3.68H48.84V8.26Zm-1.31,6.31h1.18c1.36,0,2.13-.75,2.13-2.64,0-1.68-.63-2.64-2.13-2.64H50.06Z"/><path class="cls-4" d="M56.57,7.85a.69.69,0,0,1,.71.68.71.71,0,1,1-.71-.68ZM56,9.92h1.19v5.67H56Z"/><path class="cls-4" d="M60.84,9.82c1.34,0,2.1.72,2.1,1.72H61.86c0-.39-.28-.83-1.06-.83-.6,0-1,.27-1,.75s.79.71,1.44.83c1.05.18,1.88.51,1.88,1.59s-.92,1.81-2.34,1.81-2.23-.64-2.23-1.66h1.16c.07.46.47.77,1.14.77s1.11-.36,1.11-.77c0-.6-.66-.69-1.42-.84-1-.22-1.88-.58-1.88-1.61C58.64,10.35,59.69,9.82,60.84,9.82Z"/><path class="cls-4" d="M65.65,14.8h0v2.68H64.42V9.92h1.16v.83h0a1.84,1.84,0,0,1,1.65-.91c1.28,0,2.18,1,2.18,2.66V13c0,1.69-.89,2.67-2.2,2.67A1.76,1.76,0,0,1,65.65,14.8Zm2.6-1.86v-.4c0-1.1-.49-1.73-1.3-1.73s-1.35.68-1.35,1.73v.4c0,1.07.52,1.75,1.37,1.75S68.25,14.08,68.25,12.94Z"/><path class="cls-4" d="M75.68,12.52V13a2.53,2.53,0,1,1-5.05,0v-.45a2.53,2.53,0,1,1,5.05,0Zm-3.85,0V13c0,1,.44,1.76,1.33,1.76S74.48,14,74.48,13v-.44c0-1-.44-1.75-1.32-1.75S71.83,11.5,71.83,12.53Z"/><path class="cls-4" d="M77.08,9.92h1.17v.79h0a1.79,1.79,0,0,1,1.65-.88,1.9,1.9,0,0,1,2,2.12v3.64H80.74v-3.4a1.16,1.16,0,0,0-1.23-1.32,1.21,1.21,0,0,0-1.25,1.34v3.38H77.08Z"/><path class="cls-4" d="M84.13,7.85a.68.68,0,0,1,.7.68.67.67,0,0,1-.7.67.68.68,0,0,1-.71-.67A.69.69,0,0,1,84.13,7.85Zm-.6,2.07h1.2v5.67h-1.2Z"/><path class="cls-4" d="M87.63,14.73h0v.86H86.42V7.88h1.19v2.84h0a1.86,1.86,0,0,1,1.65-.88c1.3,0,2.2.93,2.2,2.65V13c0,1.67-.87,2.65-2.21,2.65A1.77,1.77,0,0,1,87.63,14.73ZM90.29,13v-.42c0-1.12-.52-1.73-1.29-1.73s-1.4.6-1.4,1.73V13c0,1.13.54,1.73,1.4,1.73S90.29,14.08,90.29,13Z"/><path class="cls-4" d="M92.94,7.88h1.2v7.71h-1.2Z"/><path class="cls-4" d="M95.57,13v-.57a2.44,2.44,0,1,1,4.86.05V13H96.74v.13c0,1,.52,1.59,1.33,1.59A1.12,1.12,0,0,0,99.24,14h1.13a2.15,2.15,0,0,1-2.32,1.73A2.39,2.39,0,0,1,95.57,13Zm3.7-.81h0a1.28,1.28,0,1,0-2.53,0h2.53Z"/><path class="cls-4" d="M103.87,13v-.57a2.44,2.44,0,1,1,4.87.05V13h-3.69v.13c0,1,.51,1.59,1.32,1.59a1.12,1.12,0,0,0,1.17-.79h1.13a2.14,2.14,0,0,1-2.31,1.73A2.4,2.4,0,0,1,103.87,13Zm3.7-.81h0a1.27,1.27,0,1,0-2.52,0h2.52Z"/><path class="cls-4" d="M110.11,9.92h1.18v.79h0A1.79,1.79,0,0,1,113,9.83,1.9,1.9,0,0,1,115,12v3.64h-1.19v-3.4a1.16,1.16,0,0,0-1.23-1.32,1.21,1.21,0,0,0-1.25,1.34v3.38h-1.19Z"/></svg>