<svg id="Layer_1" data-name="Layer 1" xmlns="http://www.w3.org/2000/svg" viewBox="0 0 148.22 43.92"><defs><style>.cls-1{fill:#fff;}.cls-2{fill:#a6a5a5;}.cls-3{fill:#010101;}.cls-4,.cls-5{fill:#fffffe;}.cls-4{fill-rule:evenodd;}</style></defs><title>download-windows</title><path class="cls-1" d="M147.24,38.73A4.21,4.21,0,0,1,143,42.94H5.19A4.21,4.21,0,0,1,1,38.73V5.19A4.21,4.21,0,0,1,5.19,1H143a4.21,4.21,0,0,1,4.22,4.21h0V38.73Z"/><path class="cls-2" d="M143,43.92H5.19A5.2,5.2,0,0,1,0,38.73V5.19A5.19,5.19,0,0,1,5.19,0H143a5.2,5.2,0,0,1,5.2,5.19V38.73A5.2,5.2,0,0,1,143,43.92Z"/><path class="cls-3" d="M147.24,38.73A4.21,4.21,0,0,1,143,42.94H5.19A4.21,4.21,0,0,1,1,38.73V5.19A4.21,4.21,0,0,1,5.19,1H143a4.21,4.21,0,0,1,4.22,4.21h0V38.73Z"/><path class="cls-4" d="M22.87,10.53c-1.16.41-2,.76-2,3v1.06l.7-.13v-.93c0-1.51.38-1.82,1.39-2.26a3.68,3.68,0,0,0-.07-.73"/><path class="cls-4" d="M24.9,10.06a6.44,6.44,0,0,1,.11.7c1.82-.26,1.78.49,1.78,2.06v.58l.69-.14v-.44c0-2.44-.38-3.09-2.58-2.76"/><path class="cls-4" d="M17.71,15.21V12c0-2,1-2.6,2.9-3,2.85-.67,3,1.17,3,2.34V14l.7-.14V11.37c0-2.21-.69-3.87-3.87-3.15C18.76,8.6,17,9,17,11.94v3.41l.69-.14"/><path class="cls-4" d="M31,13.4,11.78,17.24v14L31,35l3.84-1.4V14.8ZM20.21,28.31l-4.3-.6v-3.6h4.3Zm0-4.52h-4.3v-3.4l4.3-.6Zm5.86,5.34-5.54-.79V24.11h5.54Zm0-5.34H20.53v-4L26.07,19Z"/><path class="cls-5" d="M43.87,11.79H46.3a2.81,2.81,0,0,1,1.17.23,2.2,2.2,0,0,1,.8.63,2.72,2.72,0,0,1,.47.93,4.45,4.45,0,0,1,0,2.29,2.55,2.55,0,0,1-.47.93,2,2,0,0,1-.8.63,2.81,2.81,0,0,1-1.17.23H43.87Zm1,5h1a2.51,2.51,0,0,0,1-.16,1.42,1.42,0,0,0,.6-.44,1.63,1.63,0,0,0,.29-.67,3.57,3.57,0,0,0,.08-.82,3.65,3.65,0,0,0-.08-.83,1.59,1.59,0,0,0-.29-.66,1.53,1.53,0,0,0-.6-.45,2.51,2.51,0,0,0-1-.16h-1Z"/><path class="cls-5" d="M49.78,11.79h.93v.89h-.93Zm0,1.62h.93v4.25h-.93Z"/><path class="cls-5" d="M52.52,16.3a.71.71,0,0,0,.31.57,1.26,1.26,0,0,0,.65.17l.3,0a1.5,1.5,0,0,0,.32-.08.61.61,0,0,0,.24-.17.39.39,0,0,0,.09-.29.46.46,0,0,0-.13-.3A.89.89,0,0,0,54,16a2.32,2.32,0,0,0-.44-.12l-.5-.11a4.25,4.25,0,0,1-.51-.14,1.59,1.59,0,0,1-.43-.22,1,1,0,0,1-.31-.36,1.08,1.08,0,0,1-.11-.54,1,1,0,0,1,.16-.58,1.39,1.39,0,0,1,.43-.37,1.82,1.82,0,0,1,.58-.21,4.28,4.28,0,0,1,.6,0,2.59,2.59,0,0,1,.63.07,1.62,1.62,0,0,1,.54.22A1.46,1.46,0,0,1,55,14a1.58,1.58,0,0,1,.2.6h-1a.61.61,0,0,0-.31-.45,1.38,1.38,0,0,0-.55-.11h-.24a1.83,1.83,0,0,0-.25.06.6.6,0,0,0-.21.14.31.31,0,0,0-.08.22.35.35,0,0,0,.12.28,1.15,1.15,0,0,0,.31.18l.44.12.51.1.5.14a1.41,1.41,0,0,1,.44.23,1,1,0,0,1,.44.88,1.12,1.12,0,0,1-.18.64,1.36,1.36,0,0,1-.44.42,2.11,2.11,0,0,1-.62.24,3,3,0,0,1-1.41,0,1.89,1.89,0,0,1-.59-.28,1.35,1.35,0,0,1-.54-1.11Z"/><path class="cls-5" d="M56.19,13.41h.89V14h0a1.13,1.13,0,0,1,.55-.53,1.8,1.8,0,0,1,.77-.16,2.14,2.14,0,0,1,.87.17,1.67,1.67,0,0,1,.62.49,1.89,1.89,0,0,1,.37.72,2.8,2.8,0,0,1,.13.88,3.32,3.32,0,0,1-.11.83,2.34,2.34,0,0,1-.34.71,1.69,1.69,0,0,1-.57.49,1.74,1.74,0,0,1-.82.19,3,3,0,0,1-.41,0,2.52,2.52,0,0,1-.39-.12,1.25,1.25,0,0,1-.35-.21,1,1,0,0,1-.27-.3h0v2.12h-.94Zm3.27,2.13a2.6,2.6,0,0,0-.07-.56,1.53,1.53,0,0,0-.23-.48,1.1,1.1,0,0,0-.37-.34,1.16,1.16,0,0,0-1.4.29,1.81,1.81,0,0,0-.3,1.09,2.35,2.35,0,0,0,.08.6,1.38,1.38,0,0,0,.23.47,1.26,1.26,0,0,0,.38.31,1,1,0,0,0,.5.12,1.15,1.15,0,0,0,.55-.13,1.2,1.2,0,0,0,.36-.35,1.26,1.26,0,0,0,.21-.47A2.51,2.51,0,0,0,59.46,15.54Z"/><path class="cls-5" d="M63.22,17.78a2.34,2.34,0,0,1-.91-.17,1.93,1.93,0,0,1-.68-.47,2,2,0,0,1-.42-.7,2.94,2.94,0,0,1-.14-.91,2.81,2.81,0,0,1,.14-.89,2.09,2.09,0,0,1,.42-.71,2.07,2.07,0,0,1,.68-.47,2.35,2.35,0,0,1,.91-.16,2.29,2.29,0,0,1,.9.16,2.07,2.07,0,0,1,.68.47,2.09,2.09,0,0,1,.42.71,2.81,2.81,0,0,1,.14.89,2.94,2.94,0,0,1-.14.91,2,2,0,0,1-.42.7,1.93,1.93,0,0,1-.68.47A2.29,2.29,0,0,1,63.22,17.78Zm0-.74a1.2,1.2,0,0,0,.54-.13,1.27,1.27,0,0,0,.38-.35,1.3,1.3,0,0,0,.21-.48,2,2,0,0,0,.07-.55,2,2,0,0,0-.07-.54,1.3,1.3,0,0,0-.21-.48,1.24,1.24,0,0,0-.38-.34,1.08,1.08,0,0,0-.54-.13,1.06,1.06,0,0,0-.92.47,1.32,1.32,0,0,0-.22.48,2,2,0,0,0-.07.54,2,2,0,0,0,.07.55,1.32,1.32,0,0,0,.22.48,1.13,1.13,0,0,0,.37.35A1.21,1.21,0,0,0,63.22,17Z"/><path class="cls-5" d="M66.22,13.41h.89V14h0a1.55,1.55,0,0,1,.56-.55,1.42,1.42,0,0,1,.76-.2,1.58,1.58,0,0,1,1.1.36A1.37,1.37,0,0,1,70,14.74v2.92H69V15a1.11,1.11,0,0,0-.22-.73.76.76,0,0,0-.61-.22,1.18,1.18,0,0,0-.43.08,1,1,0,0,0-.32.24,1.07,1.07,0,0,0-.21.36,1.55,1.55,0,0,0-.07.43v2.51h-.94Z"/><path class="cls-5" d="M71.05,11.79H72v.89h-.94Zm0,1.62H72v4.25h-.94Z"/><path class="cls-5" d="M73.11,11.79h.94V14h0a1.4,1.4,0,0,1,.55-.49,2.09,2.09,0,0,1,.35-.13,1.61,1.61,0,0,1,.37,0,2.19,2.19,0,0,1,.88.17,1.85,1.85,0,0,1,.62.49,2.23,2.23,0,0,1,.37.72,3.12,3.12,0,0,1,.12.88,3.32,3.32,0,0,1-.11.83,2.34,2.34,0,0,1-.34.71,1.69,1.69,0,0,1-.57.49,1.73,1.73,0,0,1-.81.19,3.25,3.25,0,0,1-.44,0,1.91,1.91,0,0,1-.41-.11,1.65,1.65,0,0,1-.36-.22,1,1,0,0,1-.26-.34h0v.58h-.89Zm3.27,3.75a2.1,2.1,0,0,0-.07-.56,1.51,1.51,0,0,0-.22-.48,1.33,1.33,0,0,0-.37-.34,1.07,1.07,0,0,0-.51-.12,1,1,0,0,0-.89.41,1.81,1.81,0,0,0-.3,1.09,2.35,2.35,0,0,0,.07.6,1.39,1.39,0,0,0,.24.47,1.23,1.23,0,0,0,.37.31,1.07,1.07,0,0,0,.51.12,1.13,1.13,0,0,0,.54-.13,1.24,1.24,0,0,0,.37-.35,1.42,1.42,0,0,0,.2-.47A2.51,2.51,0,0,0,76.38,15.54Z"/><path class="cls-5" d="M78.22,11.79h.93v5.87h-.93Z"/><path class="cls-5" d="M81,15.78a2,2,0,0,0,.06.48,1.39,1.39,0,0,0,.21.4,1.07,1.07,0,0,0,.36.27,1.27,1.27,0,0,0,1.17-.07,1,1,0,0,0,.37-.53h.89a1.8,1.8,0,0,1-.25.62,1.71,1.71,0,0,1-.44.45,1.69,1.69,0,0,1-.57.28,2.39,2.39,0,0,1-.66.1,2.24,2.24,0,0,1-.89-.17,1.71,1.71,0,0,1-.65-.46,1.92,1.92,0,0,1-.41-.71,2.84,2.84,0,0,1-.13-.9,2.72,2.72,0,0,1,.14-.86A2.17,2.17,0,0,1,80.6,14a2,2,0,0,1,.65-.49,1.93,1.93,0,0,1,.85-.18,1.93,1.93,0,0,1,1.56.76,2.25,2.25,0,0,1,.39.79,2.41,2.41,0,0,1,.06.93Zm2.18-.62a1.43,1.43,0,0,0-.09-.42,1.28,1.28,0,0,0-.22-.36,1,1,0,0,0-.33-.25A1,1,0,0,0,82.1,14a1.33,1.33,0,0,0-.45.08,1.16,1.16,0,0,0-.34.24,1.11,1.11,0,0,0-.23.36,1.08,1.08,0,0,0-.09.44Z"/><path class="cls-5" d="M88,15.78a2,2,0,0,0,.07.48,1.39,1.39,0,0,0,.21.4,1,1,0,0,0,.36.27,1.27,1.27,0,0,0,1.17-.07,1,1,0,0,0,.37-.53h.89a1.8,1.8,0,0,1-.25.62,1.88,1.88,0,0,1-.44.45,1.69,1.69,0,0,1-.57.28,2.39,2.39,0,0,1-.66.1,2.24,2.24,0,0,1-.89-.17,1.71,1.71,0,0,1-.65-.46,1.92,1.92,0,0,1-.41-.71,2.84,2.84,0,0,1-.13-.9,2.46,2.46,0,0,1,.14-.86,2.17,2.17,0,0,1,.41-.71,1.86,1.86,0,0,1,.65-.49,1.93,1.93,0,0,1,.85-.18,1.93,1.93,0,0,1,1.56.76,2.25,2.25,0,0,1,.39.79,2.41,2.41,0,0,1,.06.93Zm2.19-.62a1.43,1.43,0,0,0-.09-.42,1.28,1.28,0,0,0-.22-.36,1,1,0,0,0-.33-.25,1,1,0,0,0-.43-.09,1.33,1.33,0,0,0-.45.08,1,1,0,0,0-.34.24,1.11,1.11,0,0,0-.23.36,1.29,1.29,0,0,0-.1.44Z"/><path class="cls-5" d="M91.92,13.41h.89V14h0a1.55,1.55,0,0,1,.56-.55,1.42,1.42,0,0,1,.76-.2,1.58,1.58,0,0,1,1.1.36,1.37,1.37,0,0,1,.41,1.08v2.92h-.94V15a1.17,1.17,0,0,0-.21-.73.8.8,0,0,0-.62-.22,1.18,1.18,0,0,0-.43.08,1.08,1.08,0,0,0-.32.24.91.91,0,0,0-.2.36,1.26,1.26,0,0,0-.08.43v2.51h-.94Z"/><path class="cls-5" d="M43.32,23.39H45l1.74,7.36h0l1.94-7.36h1.73l1.88,7.36h0l1.8-7.36H55.9L53.24,33H51.53L49.6,25.65h0L47.6,33H45.86Z"/><path class="cls-5" d="M56.83,23.39h1.54v1.45H56.83Zm0,2.66h1.54v7H56.83Z"/><path class="cls-5" d="M60,26.05H61.5v1l0,0a2.59,2.59,0,0,1,.92-.91,2.47,2.47,0,0,1,1.26-.33,2.57,2.57,0,0,1,1.8.59,2.25,2.25,0,0,1,.67,1.78V33H64.63V28.64a2,2,0,0,0-.35-1.2,1.28,1.28,0,0,0-1-.37,1.76,1.76,0,0,0-.71.14,1.69,1.69,0,0,0-.52.39,1.82,1.82,0,0,0-.34.59,2.13,2.13,0,0,0-.12.72V33H60Z"/><path class="cls-5" d="M74.36,33H72.9v-.94h0A1.9,1.9,0,0,1,72,33a3.19,3.19,0,0,1-1.26.26,3.32,3.32,0,0,1-1.43-.29,2.86,2.86,0,0,1-1-.79A3.31,3.31,0,0,1,67.65,31a4.91,4.91,0,0,1-.2-1.46,4.75,4.75,0,0,1,.25-1.64,3.31,3.31,0,0,1,.68-1.13,2.63,2.63,0,0,1,1-.65,3,3,0,0,1,1.11-.21,3.68,3.68,0,0,1,.66.06,2.86,2.86,0,0,1,.65.19,2.36,2.36,0,0,1,.57.35,1.87,1.87,0,0,1,.44.49h0V23.39h1.54ZM69,29.61a3.19,3.19,0,0,0,.11.87,2.36,2.36,0,0,0,.35.77,1.72,1.72,0,0,0,.6.54,1.69,1.69,0,0,0,.86.21,1.78,1.78,0,0,0,.89-.22,1.75,1.75,0,0,0,.61-.57,2.71,2.71,0,0,0,.35-.79,3.8,3.8,0,0,0,.11-.89,2.79,2.79,0,0,0-.52-1.81,1.7,1.7,0,0,0-1.41-.65,1.73,1.73,0,0,0-.91.22,2,2,0,0,0-.61.58,2.43,2.43,0,0,0-.33.81A4.08,4.08,0,0,0,69,29.61Z"/><path class="cls-5" d="M79.23,33.21a3.75,3.75,0,0,1-1.5-.28,3.19,3.19,0,0,1-1.1-.76A3.28,3.28,0,0,1,75.94,31a4.65,4.65,0,0,1,0-3,3.28,3.28,0,0,1,.69-1.16,3.21,3.21,0,0,1,1.1-.77,4.27,4.27,0,0,1,3,0,3.21,3.21,0,0,1,1.1.77,3.28,3.28,0,0,1,.69,1.16,4.65,4.65,0,0,1,0,3,3.28,3.28,0,0,1-.69,1.16,3.19,3.19,0,0,1-1.1.76A3.73,3.73,0,0,1,79.23,33.21Zm0-1.21a1.83,1.83,0,0,0,.89-.22,1.87,1.87,0,0,0,.62-.57,2.27,2.27,0,0,0,.35-.79,3.36,3.36,0,0,0,0-1.78,2.27,2.27,0,0,0-.35-.79,2,2,0,0,0-.62-.56,1.73,1.73,0,0,0-.89-.22,1.68,1.68,0,0,0-.89.22,1.89,1.89,0,0,0-.63.56,2.27,2.27,0,0,0-.35.79,3.36,3.36,0,0,0,0,1.78,2.27,2.27,0,0,0,.35.79,1.81,1.81,0,0,0,.63.57A1.78,1.78,0,0,0,79.23,32Z"/><path class="cls-5" d="M83.22,26.05h1.63l1.36,5.2h0l1.31-5.2H89.1l1.26,5.2h0l1.42-5.2h1.56l-2.18,7H89.6l-1.3-5.18h0L87,33H85.38Z"/><path class="cls-5" d="M95.35,30.78a1.15,1.15,0,0,0,.51.95,2,2,0,0,0,1.07.27c.14,0,.3,0,.49,0a1.8,1.8,0,0,0,.52-.13,1,1,0,0,0,.4-.27.67.67,0,0,0,.14-.48.68.68,0,0,0-.22-.49,1.62,1.62,0,0,0-.52-.3,5.26,5.26,0,0,0-.72-.2l-.82-.17c-.29-.07-.57-.14-.83-.23a2.45,2.45,0,0,1-.72-.37,1.56,1.56,0,0,1-.5-.58,1.86,1.86,0,0,1-.19-.89,1.64,1.64,0,0,1,.27-1,2.24,2.24,0,0,1,.71-.62,2.83,2.83,0,0,1,.94-.33,5.87,5.87,0,0,1,1-.09,4.28,4.28,0,0,1,1,.11,2.83,2.83,0,0,1,.89.37,2.25,2.25,0,0,1,.67.67,2.46,2.46,0,0,1,.33,1H98.18a1,1,0,0,0-.51-.74,2,2,0,0,0-.91-.19l-.38,0a1.84,1.84,0,0,0-.42.1.83.83,0,0,0-.33.22.49.49,0,0,0-.13.37.57.57,0,0,0,.19.45,1.39,1.39,0,0,0,.51.29,4.53,4.53,0,0,0,.73.2l.83.18c.28.06.56.14.83.22a2.72,2.72,0,0,1,.72.37,1.78,1.78,0,0,1,.51.58,1.74,1.74,0,0,1,.2.86A1.89,1.89,0,0,1,99.73,32a2.33,2.33,0,0,1-.73.7,3.32,3.32,0,0,1-1,.39,5.12,5.12,0,0,1-1.09.12,4.69,4.69,0,0,1-1.22-.15,2.8,2.8,0,0,1-1-.45,2.08,2.08,0,0,1-.65-.76,2.38,2.38,0,0,1-.25-1.07Z"/><path class="cls-5" d="M106.26,29.81a2.07,2.07,0,0,0,.19.94,1.66,1.66,0,0,0,.53.64,2.2,2.2,0,0,0,.77.37,3.64,3.64,0,0,0,1,.11,3.28,3.28,0,0,0,1-.12,2.06,2.06,0,0,0,.63-.33,1.21,1.21,0,0,0,.35-.47,1.26,1.26,0,0,0,.11-.53,1.15,1.15,0,0,0-.25-.82,1.34,1.34,0,0,0-.54-.37,10.28,10.28,0,0,0-1.2-.36l-1.68-.44a3.51,3.51,0,0,1-1-.42,2.49,2.49,0,0,1-.65-.59,1.88,1.88,0,0,1-.35-.69,2.64,2.64,0,0,1-.1-.74,2.55,2.55,0,0,1,.3-1.26,2.73,2.73,0,0,1,.81-.88,3.34,3.34,0,0,1,1.13-.52,4.64,4.64,0,0,1,1.28-.17,5,5,0,0,1,1.42.19,3.54,3.54,0,0,1,1.18.59,2.83,2.83,0,0,1,1.1,2.29h-1.69a1.58,1.58,0,0,0-.63-1.31,2.51,2.51,0,0,0-1.45-.39,3.13,3.13,0,0,0-.6.06,2,2,0,0,0-.57.21,1.18,1.18,0,0,0-.42.38,1,1,0,0,0-.17.61,1,1,0,0,0,.31.8,2,2,0,0,0,.83.44l.43.11.83.23.89.23.63.17a2.92,2.92,0,0,1,.83.41,2.66,2.66,0,0,1,.58.58,2.24,2.24,0,0,1,.35.71,2.51,2.51,0,0,1,.12.76,2.71,2.71,0,0,1-.33,1.38,2.8,2.8,0,0,1-.87.94,3.79,3.79,0,0,1-1.23.53,6,6,0,0,1-3,0,3.71,3.71,0,0,1-1.26-.62,3.1,3.1,0,0,1-.87-1.08,3.5,3.5,0,0,1-.33-1.54Z"/><path class="cls-5" d="M113,26.05h1.16V24h1.54v2.1h1.39v1.14h-1.39v3.73c0,.16,0,.3,0,.41a.66.66,0,0,0,.09.3.47.47,0,0,0,.23.18,1.05,1.05,0,0,0,.4.06h.32a1.88,1.88,0,0,0,.33-.05V33l-.5.05a4.07,4.07,0,0,1-.5,0,3.31,3.31,0,0,1-1-.12,1.3,1.3,0,0,1-.58-.33,1.19,1.19,0,0,1-.28-.56,4.4,4.4,0,0,1-.09-.77V27.19H113Z"/><path class="cls-5" d="M121.37,33.21a3.7,3.7,0,0,1-1.49-.28,3.09,3.09,0,0,1-1.1-.76,3,3,0,0,1-.69-1.16,4.65,4.65,0,0,1,0-3,3,3,0,0,1,.69-1.16,3.12,3.12,0,0,1,1.1-.77,4.25,4.25,0,0,1,3,0,3.16,3.16,0,0,1,1.11.77,3.28,3.28,0,0,1,.69,1.16,4.84,4.84,0,0,1,0,3,3.28,3.28,0,0,1-.69,1.16,3.13,3.13,0,0,1-1.11.76A3.67,3.67,0,0,1,121.37,33.21Zm0-1.21a1.8,1.8,0,0,0,.89-.22,1.78,1.78,0,0,0,.62-.57,2.28,2.28,0,0,0,.36-.79,3.36,3.36,0,0,0,0-1.78,2.28,2.28,0,0,0-.36-.79,1.85,1.85,0,0,0-.62-.56,1.91,1.91,0,0,0-1.78,0,1.85,1.85,0,0,0-.62.56,2.48,2.48,0,0,0-.36.79,3.66,3.66,0,0,0,0,1.78,2.48,2.48,0,0,0,.36.79,1.78,1.78,0,0,0,.62.57A1.8,1.8,0,0,0,121.37,32Z"/><path class="cls-5" d="M126.18,26.05h1.44v1.34h0a1.53,1.53,0,0,1,.26-.55,2.71,2.71,0,0,1,.47-.49A2.39,2.39,0,0,1,129,26a1.79,1.79,0,0,1,.68-.13h.37l.21,0v1.48l-.33-.05-.33,0a1.81,1.81,0,0,0-.73.16,1.56,1.56,0,0,0-.6.46,2.24,2.24,0,0,0-.41.75,3.17,3.17,0,0,0-.15,1V33h-1.53Z"/><path class="cls-5" d="M132,29.93a2.54,2.54,0,0,0,.12.78,1.84,1.84,0,0,0,.34.67,1.88,1.88,0,0,0,.58.45,2,2,0,0,0,.84.17,1.9,1.9,0,0,0,1.09-.29,1.83,1.83,0,0,0,.61-.87H137a3.13,3.13,0,0,1-.42,1,3.21,3.21,0,0,1-.72.75,3.08,3.08,0,0,1-.93.45,3.6,3.6,0,0,1-1.09.16,3.69,3.69,0,0,1-1.46-.27,2.94,2.94,0,0,1-1.07-.76,3.23,3.23,0,0,1-.66-1.16,4.64,4.64,0,0,1-.22-1.48,4.17,4.17,0,0,1,.23-1.41,3.4,3.4,0,0,1,.68-1.17,3.15,3.15,0,0,1,1.06-.81,3.3,3.3,0,0,1,1.4-.29,3.13,3.13,0,0,1,1.48.34,3.28,3.28,0,0,1,1.08.91,3.66,3.66,0,0,1,.63,1.3,4.07,4.07,0,0,1,.1,1.52Zm3.59-1a2.73,2.73,0,0,0-.15-.7,1.92,1.92,0,0,0-.35-.59,1.65,1.65,0,0,0-.54-.4,1.51,1.51,0,0,0-.71-.16,2,2,0,0,0-.74.14,1.76,1.76,0,0,0-.56.39,1.93,1.93,0,0,0-.38.59,2,2,0,0,0-.16.73Z"/></svg>