<svg id="Layer_1" data-name="Layer 1" xmlns="http://www.w3.org/2000/svg" xmlns:xlink="http://www.w3.org/1999/xlink" viewBox="0 0 148.22 43.92"><defs><style>.cls-1{fill:#fff;}.cls-2{fill:#a6a5a5;}.cls-3{fill:#010101;}.cls-4{fill:url(#linear-gradient);}.cls-5{fill:url(#linear-gradient-2);}.cls-6{fill:url(#linear-gradient-3);}.cls-7{fill:url(#linear-gradient-4);}.cls-8{fill:#fffffe;}</style><linearGradient id="linear-gradient" x1="22.5" y1="8.83" x2="22.5" y2="35.55" gradientUnits="userSpaceOnUse"><stop offset="0" stop-color="#267caf"/><stop offset="0.29" stop-color="#4a92b4"/><stop offset="0.77" stop-color="#79bcba"/><stop offset="1" stop-color="#88cebc"/></linearGradient><linearGradient id="linear-gradient-2" x1="36.32" y1="19.11" x2="33.06" y2="26.48" gradientUnits="userSpaceOnUse"><stop offset="0" stop-color="#f48879"/><stop offset="0.12" stop-color="#f5907a"/><stop offset="0.71" stop-color="#fbb777"/><stop offset="1" stop-color="#fdc874"/></linearGradient><linearGradient id="linear-gradient-3" x1="31.47" y1="24.71" x2="16.81" y2="36.56" gradientUnits="userSpaceOnUse"><stop offset="0" stop-color="#eb413d"/><stop offset="0.17" stop-color="#d94452"/><stop offset="0.57" stop-color="#af487a"/><stop offset="0.86" stop-color="#954b92"/><stop offset="1" stop-color="#894a9c"/></linearGradient><linearGradient id="linear-gradient-4" x1="17.85" y1="9.56" x2="31.87" y2="20.27" gradientUnits="userSpaceOnUse"><stop offset="0" stop-color="#54c0ac"/><stop offset="1" stop-color="#dde79a"/></linearGradient></defs><title>download-google</title><path class="cls-1" d="M147.24,38.73A4.21,4.21,0,0,1,143,42.94H5.19A4.21,4.21,0,0,1,1,38.73V5.19A4.21,4.21,0,0,1,5.19,1H143a4.21,4.21,0,0,1,4.22,4.21h0V38.73Z"/><path class="cls-2" d="M143,43.92H5.19A5.2,5.2,0,0,1,0,38.73V5.19A5.19,5.19,0,0,1,5.19,0H143a5.2,5.2,0,0,1,5.2,5.19V38.73A5.2,5.2,0,0,1,143,43.92Z"/><path class="cls-3" d="M147.24,38.73A4.21,4.21,0,0,1,143,42.94H5.19A4.21,4.21,0,0,1,1,38.73V5.19A4.21,4.21,0,0,1,5.19,1H143a4.21,4.21,0,0,1,4.22,4.21h0V38.73Z"/><path class="cls-1" d="M74.6,24.33A4.52,4.52,0,0,0,70,29a4.58,4.58,0,0,0,4.62,4.61A4.51,4.51,0,0,0,79.21,29,4.46,4.46,0,0,0,74.6,24.33Zm0,7.3a2.8,2.8,0,0,1,0-5.58,2.6,2.6,0,0,1,2.57,2.79A2.66,2.66,0,0,1,74.6,31.63Zm-10-7.3A4.51,4.51,0,0,0,60,29a4.57,4.57,0,0,0,4.61,4.61A4.51,4.51,0,0,0,69.23,29,4.46,4.46,0,0,0,64.61,24.33Zm0,7.3a2.8,2.8,0,0,1,0-5.58,2.6,2.6,0,0,1,2.58,2.79A2.66,2.66,0,0,1,64.61,31.63ZM52.7,25.73v1.93h4.61a4.13,4.13,0,0,1-1.07,2.47,4.78,4.78,0,0,1-3.54,1.4,5,5,0,0,1-5.05-5.16,5.06,5.06,0,0,1,5.05-5.15,5.33,5.33,0,0,1,3.54,1.39l1.39-1.39a6.88,6.88,0,0,0-4.83-1.93,7.24,7.24,0,0,0-7.19,7.08,7.24,7.24,0,0,0,7.19,7.09,6.2,6.2,0,0,0,4.94-2,6.47,6.47,0,0,0,1.72-4.51,3.92,3.92,0,0,0-.11-1.18Zm48.73,1.5a4.17,4.17,0,0,0-3.86-2.9A4.33,4.33,0,0,0,93.27,29a4.49,4.49,0,0,0,4.51,4.61,4.41,4.41,0,0,0,3.76-2L100,30.45a2.63,2.63,0,0,1-2.26,1.29,2.33,2.33,0,0,1-2.25-1.4l6.12-2.57-.22-.54Zm-6.22,1.5a2.61,2.61,0,0,1,2.36-2.68,1.91,1.91,0,0,1,1.72,1l-4.08,1.71Zm-5,4.41h2V19.72h-2ZM86.94,25.3a3.53,3.53,0,0,0-2.47-1.07,4.61,4.61,0,0,0-4.4,4.61,4.44,4.44,0,0,0,4.4,4.51,3.11,3.11,0,0,0,2.36-1.07h.11v.64A2.44,2.44,0,0,1,82.22,34l-1.72.76a4.43,4.43,0,0,0,4.08,2.68c2.36,0,4.29-1.4,4.29-4.72V24.55H86.94v.75Zm-2.36,6.33a2.8,2.8,0,0,1,0-5.58,2.59,2.59,0,0,1,2.47,2.79A2.59,2.59,0,0,1,84.58,31.63Zm26.19-11.91h-4.83V33.14h2V28.09h2.79a4.19,4.19,0,1,0,0-8.37Zm.11,6.44H108V21.54h2.9a2.36,2.36,0,0,1,2.36,2.26,2.45,2.45,0,0,1-2.36,2.36Zm12.35-1.93a3.62,3.62,0,0,0-3.55,2l1.83.76a1.88,1.88,0,0,1,1.82-1,2,2,0,0,1,2.15,1.72v.11a4.18,4.18,0,0,0-2-.54c-1.93,0-3.86,1.07-3.86,3a3.14,3.14,0,0,0,3.32,3,3,3,0,0,0,2.58-1.29h.11v1.08h1.93V28a4.06,4.06,0,0,0-4.29-3.75Zm-.22,7.4c-.64,0-1.61-.32-1.61-1.18,0-1.07,1.18-1.39,2.15-1.39a4,4,0,0,1,1.82.43A2.5,2.5,0,0,1,123,31.63Zm11.27-7.08L132,30.34h-.11l-2.36-5.79h-2.15L131,32.71l-2,4.5h2l5.48-12.66Zm-18,8.59h2V19.72h-2Z"/><path class="cls-4" d="M16,8.91a2.1,2.1,0,0,0-.43,1.5V34.14a2.13,2.13,0,0,0,.54,1.5l.11.11L29.48,22.44v-.22Z"/><path class="cls-5" d="M33.77,27l-4.4-4.4v-.33l4.4-4.4.11.11,5.26,3c1.5.85,1.5,2.25,0,3.11Z"/><path class="cls-6" d="M33.88,26.84l-4.51-4.51L16,35.75c.54.54,1.29.54,2.26.11l15.67-9"/><path class="cls-7" d="M33.88,17.82,18.21,8.91A1.74,1.74,0,0,0,16,9L29.37,22.33l4.51-4.51Z"/><path class="cls-8" d="M46.45,10h2.06a3.46,3.46,0,0,1,1.27.22,3.07,3.07,0,0,1,1,.62,2.78,2.78,0,0,1,.65.94,3,3,0,0,1,.23,1.16v0a3,3,0,0,1-.23,1.17,2.78,2.78,0,0,1-.65.94,3.1,3.1,0,0,1-1,.63,3.46,3.46,0,0,1-1.27.22H46.45Zm2.06,5.31a2.71,2.71,0,0,0,1-.18,2.21,2.21,0,0,0,.78-.49,2.33,2.33,0,0,0,.49-.74A2.39,2.39,0,0,0,51,13v0a2.28,2.28,0,0,0-.66-1.66,2.1,2.1,0,0,0-.78-.5,2.53,2.53,0,0,0-1-.19H47.12v4.7Z"/><path class="cls-8" d="M53.22,10h.67v5.92h-.67Z"/><path class="cls-8" d="M57.75,16a3.58,3.58,0,0,1-1.3-.23,3.81,3.81,0,0,1-1.12-.72l.41-.49a3.52,3.52,0,0,0,.94.63,2.68,2.68,0,0,0,1.09.21,1.5,1.5,0,0,0,1-.29.87.87,0,0,0,.36-.72v0A1.15,1.15,0,0,0,59,14a.84.84,0,0,0-.24-.3,1.58,1.58,0,0,0-.47-.24,5.46,5.46,0,0,0-.77-.21,6.43,6.43,0,0,1-.89-.26,2.13,2.13,0,0,1-.62-.34,1.3,1.3,0,0,1-.37-.48,1.54,1.54,0,0,1-.12-.63v0a1.44,1.44,0,0,1,.15-.65,1.61,1.61,0,0,1,.4-.51,2.15,2.15,0,0,1,1.4-.46,3.25,3.25,0,0,1,1.14.18,3.55,3.55,0,0,1,1,.55l-.39.52a2.82,2.82,0,0,0-.84-.49,2.35,2.35,0,0,0-.87-.16,1.41,1.41,0,0,0-.93.28.86.86,0,0,0-.34.68v0a1.06,1.06,0,0,0,.07.37.8.8,0,0,0,.25.31,1.71,1.71,0,0,0,.49.25,5.48,5.48,0,0,0,.8.22,3.51,3.51,0,0,1,1.46.61,1.29,1.29,0,0,1,.47,1.07h0a1.52,1.52,0,0,1-.15.69,1.54,1.54,0,0,1-.41.53,1.87,1.87,0,0,1-.64.34A2.64,2.64,0,0,1,57.75,16Z"/><path class="cls-8" d="M61.21,10h2.22a2.9,2.9,0,0,1,.91.13,2,2,0,0,1,.71.37,1.61,1.61,0,0,1,.44.59,1.8,1.8,0,0,1,.16.79h0a1.78,1.78,0,0,1-.19.85,1.71,1.71,0,0,1-.5.6,2.24,2.24,0,0,1-.74.37,3.26,3.26,0,0,1-.9.12H61.88v2.09h-.67Zm2.14,3.23a2.36,2.36,0,0,0,.67-.09,1.51,1.51,0,0,0,.52-.27,1.3,1.3,0,0,0,.33-.41,1.33,1.33,0,0,0,.11-.54h0a1.12,1.12,0,0,0-.44-1,1.86,1.86,0,0,0-1.16-.33h-1.5v2.62Z"/><path class="cls-8" d="M69.71,16a3,3,0,0,1-1.23-.25,2.84,2.84,0,0,1-1-.66,3,3,0,0,1-.61-1A3.07,3.07,0,0,1,66.69,13v0a3.29,3.29,0,0,1,.22-1.17,3.2,3.2,0,0,1,.62-1,3.13,3.13,0,0,1,1-.67,3.05,3.05,0,0,1,3.42.66,3,3,0,0,1,.61,1,3.07,3.07,0,0,1,.22,1.16s0,0,0,0a3.08,3.08,0,0,1-.22,1.17,3,3,0,0,1-.62,1,2.9,2.9,0,0,1-1,.67A3.07,3.07,0,0,1,69.71,16Zm0-.62a2.43,2.43,0,0,0,.94-.19,2.16,2.16,0,0,0,.73-.52,2.27,2.27,0,0,0,.48-.77,2.51,2.51,0,0,0,.18-.95v0a2.47,2.47,0,0,0-.18-1,2.25,2.25,0,0,0-.49-.78,2.33,2.33,0,0,0-1.67-.72,2.43,2.43,0,0,0-.94.19,2.26,2.26,0,0,0-.73.52,2.56,2.56,0,0,0-.48.78,2.42,2.42,0,0,0-.17.94v0a2.47,2.47,0,0,0,.17.95,2.4,2.4,0,0,0,.49.78,2.3,2.3,0,0,0,.74.52A2.22,2.22,0,0,0,69.72,15.41Z"/><path class="cls-8" d="M74.24,10h.63l3.73,4.75V10h.65v5.92h-.53l-3.83-4.86v4.86h-.65Z"/><path class="cls-8" d="M81.07,10h.67v5.92h-.67Z"/><path class="cls-8" d="M83.56,10h2.52a2.5,2.5,0,0,1,.9.14,1.72,1.72,0,0,1,.65.38,1.35,1.35,0,0,1,.38,1h0a1.62,1.62,0,0,1-.08.52,1.11,1.11,0,0,1-.22.38,1.32,1.32,0,0,1-.3.28,1.41,1.41,0,0,1-.34.19,2.75,2.75,0,0,1,.5.2,1.5,1.5,0,0,1,.4.3,1.27,1.27,0,0,1,.37.94h0a1.52,1.52,0,0,1-.15.69,1.43,1.43,0,0,1-.44.51,2.13,2.13,0,0,1-.68.31,3,3,0,0,1-.88.11H83.56ZM86,12.63a1.68,1.68,0,0,0,1-.27.89.89,0,0,0,.37-.78v0a.83.83,0,0,0-.34-.7,1.52,1.52,0,0,0-1-.26h-1.8v2Zm.24,2.69A1.75,1.75,0,0,0,87.28,15a.89.89,0,0,0,.39-.78h0a.85.85,0,0,0-.4-.75,2.06,2.06,0,0,0-1.17-.27H84.23v2.09Z"/><path class="cls-8" d="M89.76,10h.67v5.31h3.34v.61h-4Z"/><path class="cls-8" d="M95.09,10h4.29v.6H95.76v2H99v.6H95.76v2.08h3.66v.6H95.09Z"/><path class="cls-8" d="M103.48,10h4.28v.6h-3.61v2h3.23v.6h-3.23v2.08h3.65v.6h-4.32Z"/><path class="cls-8" d="M109.24,10h.62l3.74,4.75V10h.65v5.92h-.53l-3.83-4.86v4.86h-.65Z"/></svg>