<svg id="Layer_1" data-name="Layer 1" xmlns="http://www.w3.org/2000/svg" xmlns:xlink="http://www.w3.org/1999/xlink" viewBox="0 0 148.22 43.92"><defs><style>.cls-1{fill:#fff;}.cls-2{fill:#a6a5a5;}.cls-3{fill:#010101;}.cls-4{fill:url(#linear-gradient);}.cls-5,.cls-7{fill:#f5f5f6;}.cls-6{fill:#d2554b;}.cls-7{opacity:0.7;}</style><linearGradient id="linear-gradient" x1="23.65" y1="35.47" x2="23.65" y2="8.45" gradientUnits="userSpaceOnUse"><stop offset="0" stop-color="#ce4749"/><stop offset="1" stop-color="#d66b58"/></linearGradient></defs><title>download-huawei</title><path class="cls-1" d="M147.24,38.73A4.21,4.21,0,0,1,143,42.94H5.19A4.21,4.21,0,0,1,1,38.73V5.19A4.21,4.21,0,0,1,5.19,1H143a4.21,4.21,0,0,1,4.22,4.21h0V38.73Z"/><path class="cls-2" d="M143,43.92H5.19A5.2,5.2,0,0,1,0,38.73V5.19A5.19,5.19,0,0,1,5.19,0H143a5.2,5.2,0,0,1,5.2,5.19V38.73A5.2,5.2,0,0,1,143,43.92Z"/><path class="cls-3" d="M147.24,38.73A4.21,4.21,0,0,1,143,42.94H5.19A4.21,4.21,0,0,1,1,38.73V5.19A4.21,4.21,0,0,1,5.19,1H143a4.21,4.21,0,0,1,4.22,4.21h0V38.73Z"/><rect class="cls-4" x="10.14" y="8.45" width="27.02" height="27.02" rx="4.35"/><path class="cls-5" d="M16.93,20.86a2.32,2.32,0,0,0,.8,1.58,24.85,24.85,0,0,0,4.77,3s.05,0,.07,0a.06.06,0,0,0,0-.06,36.25,36.25,0,0,0-4.37-7.09,4,4,0,0,0-1.28,2.61"/><path class="cls-5" d="M17.22,26.53c.53.93,1.41,1.66,2.33,1.43a11.89,11.89,0,0,0,2.54-1.5h0s0-.06,0-.06a.08.08,0,0,0-.07,0h0Z"/><path class="cls-5" d="M15.84,22.69v.91a2.59,2.59,0,0,0,.23.76,2.88,2.88,0,0,0,1.52,1.44,3,3,0,0,0,.93.2h3.62a.07.07,0,0,0,.05,0,.06.06,0,0,0,0-.07c-2.12-1.44-6.23-3.63-6.23-3.63a2.13,2.13,0,0,0-.1.42"/><path class="cls-5" d="M21.73,16.31a2.23,2.23,0,0,0-1.58,1.49,3,3,0,0,0,0,1.54c.42,1.89,2.52,5,3,5.66,0,0,.05,0,.05,0a.07.07,0,0,0,0-.06h0c.69-6.95-.73-8.8-.73-8.8-.21,0-.78.15-.78.15"/><path class="cls-5" d="M24.07,25c0,.05,0,.06,0,.06a.06.06,0,0,0,.07,0h0c.46-.67,2.55-3.77,3-5.65a3.26,3.26,0,0,0,0-1.54,2.27,2.27,0,0,0-1.6-1.49s-.37-.09-.76-.15c0,0-1.43,1.85-.74,8.8"/><path class="cls-5" d="M25.25,26.36s0,0-.05,0a.06.06,0,0,0,0,.06h0A12.09,12.09,0,0,0,27.76,28s1.25.42,2.33-1.44l-4.84-.17Z"/><path class="cls-5" d="M25.15,25.89h0a.08.08,0,0,0,0,.07s0,0,.05,0h3.71a2.72,2.72,0,0,0,.83-.19,2.85,2.85,0,0,0,1.56-1.49,2.94,2.94,0,0,0,.11-2s-4.11,2.2-6.23,3.63"/><path class="cls-5" d="M24.74,25.33h0a.06.06,0,0,0,0,.07.05.05,0,0,0,.06,0,24.33,24.33,0,0,0,4.77-3,2.34,2.34,0,0,0,.79-1.58,3.92,3.92,0,0,0-1.27-2.61,36,36,0,0,0-4.37,7.08"/><polygon class="cls-5" points="16.37 30.38 17.65 30.38 17.65 29.36 18.23 29.36 18.23 31.89 17.65 31.89 17.65 30.83 16.37 30.83 16.37 31.89 15.79 31.89 15.79 29.36 16.37 29.36 16.37 30.38"/><path class="cls-5" d="M19.27,30.87c0,.45.14.63.62.63s.61-.18.61-.63V29.36h.58v1.53a1,1,0,0,1-.16.67,1.3,1.3,0,0,1-1,.35,1.28,1.28,0,0,1-1-.35.93.93,0,0,1-.16-.67V29.36h.57Z"/><path class="cls-5" d="M22.23,30.83h.82l-.42-1ZM23,29.36l1.17,2.53h-.65l-.25-.61H22l-.24.61h-.61l1.16-2.53Z"/><polygon class="cls-5" points="24.39 29.36 25.02 31.3 25.55 29.36 26.23 29.36 26.85 31.3 27.44 29.36 28.03 29.36 27.18 31.89 26.48 31.89 25.89 30 25.38 31.89 24.68 31.89 23.77 29.36 24.39 29.36"/><path class="cls-5" d="M28.8,30.38h1.6v.45H28.8c0,.45.2.62.65.62h.95v.44h-1a1.28,1.28,0,0,1-.85-.23,1.13,1.13,0,0,1-.42-1c0-.9.41-1.31,1.29-1.31h1v.44h-.95a.57.57,0,0,0-.65.58"/><rect class="cls-5" x="30.9" y="29.36" width="0.6" height="2.53"/><path class="cls-6" d="M23.55,14.55c-4.37,0-7.6-3.37-7.73-3.51a.76.76,0,1,1,1.1-1s2.93,3,6.63,3S30.37,10,30.4,10a.77.77,0,0,1,1.08,0,.76.76,0,0,1,0,1.07C31.33,11.2,27.91,14.55,23.55,14.55Z"/><path class="cls-7" d="M23.55,13.24a12.68,12.68,0,0,1-7.47-2.69A.45.45,0,0,1,16,9.91a.46.46,0,0,1,.64-.06,12,12,0,0,0,6.89,2.48,13,13,0,0,0,7.11-2.49.46.46,0,1,1,.56.72A13.68,13.68,0,0,1,23.55,13.24Z"/><path class="cls-5" d="M50,13.52a2.7,2.7,0,0,0-3-3H45.42V16.6h1.69C48.92,16.6,50,15.54,50,13.52Zm-3.53,2.2V11.36H47c1.23,0,1.93.65,1.93,2.16s-.7,2.2-1.93,2.2Z"/><rect class="cls-5" x="51.17" y="12.01" width="1.08" height="4.59"/><path class="cls-5" d="M51.71,11.2a.61.61,0,0,0,.66-.61.61.61,0,0,0-.66-.6.61.61,0,0,0-.67.6A.62.62,0,0,0,51.71,11.2Z"/><path class="cls-5" d="M55.36,13.9c-.5-.19-1-.32-1-.69s.22-.5.68-.5a1.72,1.72,0,0,1,1,.4l.49-.67a2.48,2.48,0,0,0-1.53-.55c-1,0-1.67.58-1.67,1.38s.69,1.11,1.29,1.33,1,.36,1,.75-.24.55-.74.55a2,2,0,0,1-1.26-.52l-.5.69a2.85,2.85,0,0,0,1.73.64c1.16,0,1.79-.64,1.79-1.43S56,14.13,55.36,13.9Z"/><path class="cls-5" d="M58.71,17l0-.76a1.83,1.83,0,0,0,1.18.51c1,0,2-.91,2-2.48,0-1.42-.66-2.34-1.81-2.34a2.2,2.2,0,0,0-1.38.61h0L58.52,12h-.88v6.4h1.07Zm0-3.66a1.46,1.46,0,0,1,1-.52c.69,0,1,.55,1,1.46s-.46,1.58-1.08,1.58a1.44,1.44,0,0,1-.92-.38Z"/><path class="cls-5" d="M64.79,11.89A2.23,2.23,0,0,0,62.6,14.3a2.2,2.2,0,1,0,4.37,0A2.23,2.23,0,0,0,64.79,11.89Zm0,3.94c-.68,0-1.08-.61-1.08-1.53s.4-1.53,1.08-1.53,1.07.62,1.07,1.53S65.46,15.83,64.79,15.83Z"/><path class="cls-5" d="M69.11,13.39a1.45,1.45,0,0,1,1-.57c.49,0,.71.28.71,1V16.6H72V13.72c0-1.16-.43-1.83-1.42-1.83a2.15,2.15,0,0,0-1.5.74h0L68.92,12H68V16.6h1.08Z"/><rect class="cls-5" x="73.26" y="12.01" width="1.08" height="4.59"/><path class="cls-5" d="M73.81,11.2a.61.61,0,0,0,.66-.61.67.67,0,0,0-1.33,0A.62.62,0,0,0,73.81,11.2Z"/><path class="cls-5" d="M79.89,14.22c0-1.41-.66-2.33-1.81-2.33a2.06,2.06,0,0,0-1.32.58l0-.77V10H75.71v6.6h.85l.09-.49h0a1.88,1.88,0,0,0,1.25.6C79,16.71,79.89,15.8,79.89,14.22Zm-3.1,1.22V13.3a1.43,1.43,0,0,1,1-.52c.7,0,1,.55,1,1.46s-.47,1.58-1.08,1.58A1.41,1.41,0,0,1,76.79,15.44Z"/><path class="cls-5" d="M82,16.71a1.33,1.33,0,0,0,.56-.1l-.13-.8a.59.59,0,0,1-.17,0c-.11,0-.23-.09-.23-.36V10H80.91v5.41C80.91,16.21,81.19,16.71,82,16.71Z"/><path class="cls-5" d="M85.4,16.71a2.82,2.82,0,0,0,1.58-.5l-.37-.67a2,2,0,0,1-1.07.33,1.31,1.31,0,0,1-1.35-1.27h2.92a3.48,3.48,0,0,0,0-.53c0-1.28-.65-2.18-1.89-2.18a2.24,2.24,0,0,0-2.12,2.41A2.22,2.22,0,0,0,85.4,16.71Zm-.12-4c.63,0,.94.43.94,1.13h-2A1.15,1.15,0,0,1,85.28,12.73Z"/><path class="cls-5" d="M92,16.71a2.82,2.82,0,0,0,1.57-.5l-.37-.67a1.92,1.92,0,0,1-1.06.33A1.3,1.3,0,0,1,90.8,14.6h2.91a3.29,3.29,0,0,0,.05-.53c0-1.28-.66-2.18-1.9-2.18a2.23,2.23,0,0,0-2.11,2.41A2.22,2.22,0,0,0,92,16.71Zm-.13-4c.63,0,.94.43.94,1.13h-2A1.16,1.16,0,0,1,91.88,12.73Z"/><path class="cls-5" d="M97.28,11.89a2.15,2.15,0,0,0-1.5.74h0L95.67,12h-.89V16.6h1.08V13.39a1.45,1.45,0,0,1,1-.57c.49,0,.71.28.71,1V16.6H98.7V13.72C98.7,12.56,98.27,11.89,97.28,11.89Z"/><path class="cls-5" d="M48.69,19.88,44.61,32.41h2.26l1-3.4h4.21l1,3.4h2.35L51.3,19.88Zm-.33,7.39.44-1.53c.4-1.33.76-2.74,1.11-4.13H50c.36,1.37.73,2.8,1.13,4.13l.44,1.53Z"/><path class="cls-5" d="M61.62,22.77A4.55,4.55,0,0,0,58.78,24h-.06l-.17-1H56.74V36.14H59v-3l-.07-1.57a3.78,3.78,0,0,0,2.42,1c2.09,0,4-1.86,4-5.08C65.32,24.65,64,22.77,61.62,22.77Zm-.79,8.05A2.91,2.91,0,0,1,59,30V25.65a3,3,0,0,1,2-1.06c1.44,0,2,1.11,2,3C63.05,29.71,62.09,30.82,60.83,30.82Z"/><path class="cls-5" d="M72.43,22.77A4.55,4.55,0,0,0,69.59,24h-.06l-.17-1H67.55V36.14h2.21v-3l-.07-1.57a3.78,3.78,0,0,0,2.42,1c2.09,0,4-1.86,4-5.08C76.13,24.65,74.78,22.77,72.43,22.77Zm-.79,8.05A2.91,2.91,0,0,1,69.76,30V25.65a3,3,0,0,1,2-1.06c1.44,0,2,1.11,2,3C73.86,29.71,72.9,30.82,71.64,30.82Z"/><path class="cls-5" d="M83.44,27.45H85.8v2.71a2.82,2.82,0,0,1-1.78.55c-2.52,0-3.84-1.73-3.84-4.59s1.49-4.54,3.71-4.54a3.35,3.35,0,0,1,2.53,1.09l1.19-1.44a5.17,5.17,0,0,0-3.78-1.58c-3.34,0-5.94,2.43-5.94,6.54s2.52,6.45,5.91,6.45a5.68,5.68,0,0,0,4-1.49V25.63H83.44Z"/><path class="cls-5" d="M94.12,22.77A7.34,7.34,0,0,0,90.26,24l.81,1.47a5.27,5.27,0,0,1,2.65-.93c1.27,0,1.67.85,1.7,1.86-3.86.41-5.53,1.46-5.53,3.48a2.64,2.64,0,0,0,2.78,2.76,4.54,4.54,0,0,0,2.92-1.27h.06l.17,1h1.81V26.84C97.63,24.21,96.47,22.77,94.12,22.77Zm1.3,7.12a3,3,0,0,1-2,1c-.79,0-1.36-.37-1.36-1.2s.85-1.62,3.4-1.94Z"/><path class="cls-5" d="M103,30.84c-.23,0-.48-.19-.48-.74V18.87h-2.2V30c0,1.64.57,2.65,2.13,2.65a3.08,3.08,0,0,0,1.17-.19l-.28-1.65A1.18,1.18,0,0,1,103,30.84Z"/><path class="cls-5" d="M108.16,30.84c-.23,0-.47-.19-.47-.74V18.87h-2.21V30c0,1.64.57,2.65,2.14,2.65a3,3,0,0,0,1.16-.19l-.27-1.65A1.28,1.28,0,0,1,108.16,30.84Z"/><path class="cls-5" d="M114.39,22.77c-2.21,0-4.34,1.88-4.34,4.94s2,4.93,4.64,4.93a5.81,5.81,0,0,0,3.23-1l-.75-1.37a4,4,0,0,1-2.19.68,2.67,2.67,0,0,1-2.77-2.62h6a5.62,5.62,0,0,0,.1-1.07C118.28,24.61,116.94,22.77,114.39,22.77Zm-2.21,4a2.37,2.37,0,0,1,2.26-2.33c1.29,0,1.93.88,1.93,2.33Z"/><path class="cls-5" d="M122.43,24.68h-.06L122.2,23h-1.81v9.41h2.21V26.67c.57-1.44,1.47-2,2.22-2a3.29,3.29,0,0,1,1,.15l.38-1.91a2.41,2.41,0,0,0-1.07-.19A3.21,3.21,0,0,0,122.43,24.68Z"/><path class="cls-5" d="M133.56,23l-1.4,4.61c-.24.86-.48,1.79-.72,2.66h-.08c-.27-.9-.54-1.82-.82-2.66L128.91,23h-2.24l3.71,9.29-.18.59a2,2,0,0,1-1.88,1.62,2.34,2.34,0,0,1-.67-.13l-.41,1.71a3.57,3.57,0,0,0,1.23.19c2.05,0,3-1.31,3.82-3.43L135.7,23Z"/></svg>