<?xml version="1.0" encoding="UTF-8"?>
<svg width="22px" height="23px" viewBox="0 0 22 23" version="1.1" xmlns="http://www.w3.org/2000/svg" xmlns:xlink="http://www.w3.org/1999/xlink">
    <title>estantes</title>
    <defs>
        <path d="M164.952748,42.7871125 L166.822232,43.5981125 C167.599226,43.9351125 167.618225,45.0206125 166.853232,45.3836125 L166.853232,45.3836125 L160.340287,48.4786125 C158.175306,49.5071125 155.656827,49.5071125 153.491346,48.4786125 L153.491346,48.4786125 L146.978401,45.3836125 C146.214408,45.0206125 146.232908,43.9351125 147.009901,43.5981125 L147.009901,43.5981125 L148.879385,42.7871125 L153.491346,44.9786125 C155.656827,46.0071125 158.175306,46.0071125 160.340287,44.9786125 L160.340287,44.9786125 L164.952748,42.7871125 Z M164.952748,36.7871125 L166.822232,37.5981125 C167.599226,37.9351125 167.618225,39.0206125 166.853232,39.3836125 L166.853232,39.3836125 L160.340287,42.4786125 C158.175306,43.5071125 155.656827,43.5071125 153.491346,42.4786125 L153.491346,42.4786125 L146.978401,39.3836125 C146.214408,39.0206125 146.232908,37.9351125 147.009901,37.5981125 L147.009901,37.5981125 L148.879385,36.7871125 L153.491346,38.9786125 C155.656827,40.0071125 158.175306,40.0071125 160.340287,38.9786125 L160.340287,38.9786125 L164.952748,36.7871125 Z M154.930584,28.1617625 C156.196573,27.6127625 157.635561,27.6127625 158.90155,28.1617625 L158.90155,28.1617625 L166.822482,31.5982625 C167.598976,31.9352625 167.617975,33.0202625 166.853482,33.3837625 L166.853482,33.3837625 L160.340537,36.4782625 C158.175556,37.5072625 155.656577,37.5072625 153.491596,36.4782625 L153.491596,36.4782625 L146.978651,33.3837625 C146.214158,33.0202625 146.233158,31.9352625 147.009651,31.5982625 L147.009651,31.5982625 Z" id="path-1"></path>
    </defs>
    <g id="Screens" stroke="none" stroke-width="1" fill="none" fill-rule="evenodd">
        <g id="Assets" transform="translate(-146.000000, -27.000000)">
            <mask id="mask-2" fill="white">
                <use xlink:href="#path-1"></use>
            </mask>
            <use id="estantes" fill="#FFFFFF" xlink:href="#path-1"></use>
        </g>
    </g>
</svg>