<?xml version="1.0" encoding="UTF-8"?>
<svg width="20px" height="25px" viewBox="0 0 20 25" version="1.1" xmlns="http://www.w3.org/2000/svg" xmlns:xlink="http://www.w3.org/1999/xlink">
    <title>share</title>
    <g id="Screens" stroke="none" stroke-width="1" fill="none" fill-rule="evenodd">
        <g id="Assets" transform="translate(-213.000000, -127.000000)" fill="#FFFFFF" fill-rule="nonzero">
            <path d="M223.433834,143.507371 C223.895748,143.507371 224.282466,143.120652 224.282466,142.669481 L224.282466,131.637254 L224.218013,130.025926 L224.93774,130.788621 L226.570552,132.528856 C226.720943,132.700731 226.946529,132.786668 227.15063,132.786668 C227.59106,132.786668 227.93481,132.464402 227.93481,132.023973 C227.93481,131.798387 227.83813,131.626512 227.676998,131.465379 L224.046138,127.963426 C223.831295,127.748582 223.648677,127.673387 223.433834,127.673387 C223.208248,127.673387 223.02563,127.748582 222.810787,127.963426 L219.179927,131.465379 C219.018795,131.626512 218.922115,131.798387 218.922115,132.023973 C218.922115,132.464402 219.24438,132.786668 219.695552,132.786668 C219.899654,132.786668 220.135982,132.700731 220.286373,132.528856 L221.919185,130.788621 L222.638912,130.025926 L222.574459,131.637254 L222.574459,142.669481 C222.574459,143.120652 222.97192,143.507371 223.433834,143.507371 Z M217.267818,151.918504 C215.022701,151.918504 213.894771,150.801317 213.894771,148.588426 L213.894771,137.867723 C213.894771,135.654832 215.022701,134.537645 217.267818,134.537645 L220.264888,134.537645 L220.264888,136.267137 L217.289302,136.267137 C216.215084,136.267137 215.624263,136.847215 215.624263,137.964402 L215.624263,148.491746 C215.624263,149.608934 216.215084,150.189012 217.289302,150.189012 L229.55688,150.189012 C230.620357,150.189012 231.232662,149.608934 231.232662,148.491746 L231.232662,137.964402 C231.232662,136.847215 230.620357,136.267137 229.55688,136.267137 L226.592037,136.267137 L226.592037,134.537645 L229.589107,134.537645 C231.834224,134.537645 232.962154,135.654832 232.962154,137.867723 L232.962154,148.588426 C232.962154,150.801317 231.834224,151.918504 229.589107,151.918504 L217.267818,151.918504 Z" id="share"></path>
        </g>
    </g>
</svg>